<?xml version="1.0" encoding="UTF-8" standalone="no"?>
<!DOCTYPE svg PUBLIC "-//W3C//DTD SVG 1.1//EN"
 "http://www.w3.org/Graphics/SVG/1.1/DTD/svg11.dtd">
<!-- Generated by graphviz version 2.43.0 (0)
 -->
<!-- Title: Tree Pages: 1 -->
<svg width="1192pt" height="476pt"
 viewBox="0.00 0.00 1191.99 476.00" xmlns="http://www.w3.org/2000/svg" xmlns:xlink="http://www.w3.org/1999/xlink">
<g id="graph0" class="graph" transform="scale(1 1) rotate(0) translate(4 472)">
<title>Tree</title>
<polygon fill="white" stroke="transparent" points="-4,4 -4,-472 1187.99,-472 1187.99,4 -4,4"/>
<!-- [47] F -->
<g id="node1" class="node">
<title>[47] F</title>
<ellipse fill="none" stroke="black" cx="432" cy="-450" rx="38.19" ry="18"/>
<text text-anchor="middle" x="432" y="-446.3" font-family="Times,serif" font-size="14.00">[47] F</text>
</g>
<!-- [11] T -->
<g id="node2" class="node">
<title>[11] T</title>
<ellipse fill="none" stroke="black" cx="158" cy="-378" rx="38.19" ry="18"/>
<text text-anchor="middle" x="158" y="-374.3" font-family="Times,serif" font-size="14.00">[11] T</text>
</g>
<!-- [47] F&#45;&gt;[11] T -->
<g id="edge1" class="edge">
<title>[47] F&#45;&gt;[11] T</title>
<path fill="none" stroke="black" d="M399.22,-440.63C349.61,-427.95 255.43,-403.89 200.58,-389.88"/>
<polygon fill="black" stroke="black" points="201.37,-386.47 190.81,-387.38 199.64,-393.25 201.37,-386.47"/>
</g>
<!-- [13] N -->
<g id="node3" class="node">
<title>[13] N</title>
<ellipse fill="none" stroke="black" cx="292" cy="-378" rx="40.09" ry="18"/>
<text text-anchor="middle" x="292" y="-374.3" font-family="Times,serif" font-size="14.00">[13] N</text>
</g>
<!-- [47] F&#45;&gt;[13] N -->
<g id="edge2" class="edge">
<title>[47] F&#45;&gt;[13] N</title>
<path fill="none" stroke="black" d="M406.64,-436.32C384.42,-425.21 351.91,-408.95 327.17,-396.59"/>
<polygon fill="black" stroke="black" points="328.62,-393.4 318.11,-392.06 325.49,-399.66 328.62,-393.4"/>
</g>
<!-- [14] ( -->
<g id="node4" class="node">
<title>[14] (</title>
<ellipse fill="none" stroke="black" cx="386" cy="-378" rx="36" ry="18"/>
<text text-anchor="middle" x="386" y="-374.3" font-family="Times,serif" font-size="14.00">[14] (</text>
</g>
<!-- [47] F&#45;&gt;[14] ( -->
<g id="edge3" class="edge">
<title>[47] F&#45;&gt;[14] (</title>
<path fill="none" stroke="black" d="M421.1,-432.41C415.54,-423.95 408.66,-413.49 402.48,-404.08"/>
<polygon fill="black" stroke="black" points="405.24,-401.9 396.82,-395.47 399.39,-405.75 405.24,-401.9"/>
</g>
<!-- [44] A -->
<g id="node5" class="node">
<title>[44] A</title>
<ellipse fill="none" stroke="black" cx="478" cy="-378" rx="38.19" ry="18"/>
<text text-anchor="middle" x="478" y="-374.3" font-family="Times,serif" font-size="14.00">[44] A</text>
</g>
<!-- [47] F&#45;&gt;[44] A -->
<g id="edge4" class="edge">
<title>[47] F&#45;&gt;[44] A</title>
<path fill="none" stroke="black" d="M442.9,-432.41C448.45,-423.95 455.33,-413.49 461.52,-404.08"/>
<polygon fill="black" stroke="black" points="464.61,-405.75 467.17,-395.47 458.76,-401.9 464.61,-405.75"/>
</g>
<!-- [45] ) -->
<g id="node6" class="node">
<title>[45] )</title>
<ellipse fill="none" stroke="black" cx="570" cy="-378" rx="36" ry="18"/>
<text text-anchor="middle" x="570" y="-374.3" font-family="Times,serif" font-size="14.00">[45] )</text>
</g>
<!-- [47] F&#45;&gt;[45] ) -->
<g id="edge5" class="edge">
<title>[47] F&#45;&gt;[45] )</title>
<path fill="none" stroke="black" d="M456.99,-436.32C479.3,-425 512.16,-408.34 536.7,-395.89"/>
<polygon fill="black" stroke="black" points="538.32,-398.99 545.65,-391.35 535.15,-392.75 538.32,-398.99"/>
</g>
<!-- [46] ; -->
<g id="node7" class="node">
<title>[46] ;</title>
<ellipse fill="none" stroke="black" cx="659" cy="-378" rx="35.19" ry="18"/>
<text text-anchor="middle" x="659" y="-374.3" font-family="Times,serif" font-size="14.00">[46] ;</text>
</g>
<!-- [47] F&#45;&gt;[46] ; -->
<g id="edge6" class="edge">
<title>[47] F&#45;&gt;[46] ;</title>
<path fill="none" stroke="black" d="M464.66,-440.46C501.47,-430.62 562.97,-413.55 615,-396 617.53,-395.15 620.13,-394.23 622.74,-393.29"/>
<polygon fill="black" stroke="black" points="623.98,-396.56 632.14,-389.8 621.55,-390 623.98,-396.56"/>
</g>
<!-- [2] N -->
<g id="node8" class="node">
<title>[2] N</title>
<ellipse fill="none" stroke="black" cx="49" cy="-306" rx="34.39" ry="18"/>
<text text-anchor="middle" x="49" y="-302.3" font-family="Times,serif" font-size="14.00">[2] N</text>
</g>
<!-- [11] T&#45;&gt;[2] N -->
<g id="edge7" class="edge">
<title>[11] T&#45;&gt;[2] N</title>
<path fill="none" stroke="black" d="M136.2,-363C119.65,-352.37 96.71,-337.64 78.52,-325.96"/>
<polygon fill="black" stroke="black" points="80.32,-322.96 70.01,-320.5 76.54,-328.85 80.32,-322.96"/>
</g>
<!-- [10] P -->
<g id="node9" class="node">
<title>[10] P</title>
<ellipse fill="none" stroke="black" cx="158" cy="-306" rx="38.19" ry="18"/>
<text text-anchor="middle" x="158" y="-302.3" font-family="Times,serif" font-size="14.00">[10] P</text>
</g>
<!-- [11] T&#45;&gt;[10] P -->
<g id="edge8" class="edge">
<title>[11] T&#45;&gt;[10] P</title>
<path fill="none" stroke="black" d="M158,-359.7C158,-351.98 158,-342.71 158,-334.11"/>
<polygon fill="black" stroke="black" points="161.5,-334.1 158,-324.1 154.5,-334.1 161.5,-334.1"/>
</g>
<!-- [12] f -->
<g id="node18" class="node">
<title>[12] f</title>
<ellipse fill="none" stroke="black" cx="292" cy="-306" rx="36" ry="18"/>
<text text-anchor="middle" x="292" y="-302.3" font-family="Times,serif" font-size="14.00">[12] f</text>
</g>
<!-- [13] N&#45;&gt;[12] f -->
<g id="edge17" class="edge">
<title>[13] N&#45;&gt;[12] f</title>
<path fill="none" stroke="black" d="M292,-359.7C292,-351.98 292,-342.71 292,-334.11"/>
<polygon fill="black" stroke="black" points="295.5,-334.1 292,-324.1 288.5,-334.1 295.5,-334.1"/>
</g>
<!-- [19] T -->
<g id="node19" class="node">
<title>[19] T</title>
<ellipse fill="none" stroke="black" cx="393" cy="-306" rx="38.19" ry="18"/>
<text text-anchor="middle" x="393" y="-302.3" font-family="Times,serif" font-size="14.00">[19] T</text>
</g>
<!-- [44] A&#45;&gt;[19] T -->
<g id="edge18" class="edge">
<title>[44] A&#45;&gt;[19] T</title>
<path fill="none" stroke="black" d="M459.55,-361.81C447.67,-352.02 432.03,-339.15 418.91,-328.34"/>
<polygon fill="black" stroke="black" points="421.06,-325.57 411.11,-321.92 416.61,-330.98 421.06,-325.57"/>
</g>
<!-- [21] N -->
<g id="node20" class="node">
<title>[21] N</title>
<ellipse fill="none" stroke="black" cx="490" cy="-306" rx="40.09" ry="18"/>
<text text-anchor="middle" x="490" y="-302.3" font-family="Times,serif" font-size="14.00">[21] N</text>
</g>
<!-- [44] A&#45;&gt;[21] N -->
<g id="edge19" class="edge">
<title>[44] A&#45;&gt;[21] N</title>
<path fill="none" stroke="black" d="M480.96,-359.7C482.29,-351.98 483.87,-342.71 485.35,-334.11"/>
<polygon fill="black" stroke="black" points="488.82,-334.55 487.06,-324.1 481.92,-333.37 488.82,-334.55"/>
</g>
<!-- [43] B -->
<g id="node21" class="node">
<title>[43] B</title>
<ellipse fill="none" stroke="black" cx="672" cy="-306" rx="38.99" ry="18"/>
<text text-anchor="middle" x="672" y="-302.3" font-family="Times,serif" font-size="14.00">[43] B</text>
</g>
<!-- [44] A&#45;&gt;[43] B -->
<g id="edge20" class="edge">
<title>[44] A&#45;&gt;[43] B</title>
<path fill="none" stroke="black" d="M507.33,-366.39C513.18,-364.27 519.28,-362.06 525,-360 561.45,-346.84 602.99,-331.86 632.59,-321.19"/>
<polygon fill="black" stroke="black" points="633.93,-324.43 642.15,-317.75 631.56,-317.85 633.93,-324.43"/>
</g>
<!-- [1] int -->
<g id="node10" class="node">
<title>[1] int</title>
<ellipse fill="none" stroke="black" cx="39" cy="-234" rx="38.99" ry="18"/>
<text text-anchor="middle" x="39" y="-230.3" font-family="Times,serif" font-size="14.00">[1] int</text>
</g>
<!-- [2] N&#45;&gt;[1] int -->
<g id="edge9" class="edge">
<title>[2] N&#45;&gt;[1] int</title>
<path fill="none" stroke="black" d="M46.52,-287.7C45.42,-279.98 44.1,-270.71 42.87,-262.11"/>
<polygon fill="black" stroke="black" points="46.32,-261.51 41.44,-252.1 39.39,-262.5 46.32,-261.51"/>
</g>
<!-- [3] * -->
<g id="node11" class="node">
<title>[3] *</title>
<ellipse fill="none" stroke="black" cx="127" cy="-234" rx="30.59" ry="18"/>
<text text-anchor="middle" x="127" y="-230.3" font-family="Times,serif" font-size="14.00">[3] *</text>
</g>
<!-- [10] P&#45;&gt;[3] * -->
<g id="edge10" class="edge">
<title>[10] P&#45;&gt;[3] *</title>
<path fill="none" stroke="black" d="M150.49,-288.05C146.91,-279.97 142.55,-270.12 138.56,-261.11"/>
<polygon fill="black" stroke="black" points="141.68,-259.52 134.43,-251.79 135.28,-262.35 141.68,-259.52"/>
</g>
<!-- [9] P -->
<g id="node12" class="node">
<title>[9] P</title>
<ellipse fill="none" stroke="black" cx="208" cy="-234" rx="32.49" ry="18"/>
<text text-anchor="middle" x="208" y="-230.3" font-family="Times,serif" font-size="14.00">[9] P</text>
</g>
<!-- [10] P&#45;&gt;[9] P -->
<g id="edge11" class="edge">
<title>[10] P&#45;&gt;[9] P</title>
<path fill="none" stroke="black" d="M169.59,-288.76C175.84,-280.02 183.67,-269.05 190.63,-259.31"/>
<polygon fill="black" stroke="black" points="193.5,-261.32 196.46,-251.15 187.8,-257.25 193.5,-261.32"/>
</g>
<!-- [4] * -->
<g id="node13" class="node">
<title>[4] *</title>
<ellipse fill="none" stroke="black" cx="128" cy="-162" rx="30.59" ry="18"/>
<text text-anchor="middle" x="128" y="-158.3" font-family="Times,serif" font-size="14.00">[4] *</text>
</g>
<!-- [9] P&#45;&gt;[4] * -->
<g id="edge12" class="edge">
<title>[9] P&#45;&gt;[4] *</title>
<path fill="none" stroke="black" d="M191.42,-218.5C179.97,-208.48 164.58,-195.01 151.82,-183.85"/>
<polygon fill="black" stroke="black" points="154.11,-181.2 144.28,-177.25 149.5,-186.47 154.11,-181.2"/>
</g>
<!-- [8] P -->
<g id="node14" class="node">
<title>[8] P</title>
<ellipse fill="none" stroke="black" cx="209" cy="-162" rx="32.49" ry="18"/>
<text text-anchor="middle" x="209" y="-158.3" font-family="Times,serif" font-size="14.00">[8] P</text>
</g>
<!-- [9] P&#45;&gt;[8] P -->
<g id="edge13" class="edge">
<title>[9] P&#45;&gt;[8] P</title>
<path fill="none" stroke="black" d="M208.24,-215.7C208.35,-207.98 208.49,-198.71 208.61,-190.11"/>
<polygon fill="black" stroke="black" points="212.11,-190.15 208.75,-180.1 205.11,-190.05 212.11,-190.15"/>
</g>
<!-- [5] * -->
<g id="node15" class="node">
<title>[5] *</title>
<ellipse fill="none" stroke="black" cx="169" cy="-90" rx="30.59" ry="18"/>
<text text-anchor="middle" x="169" y="-86.3" font-family="Times,serif" font-size="14.00">[5] *</text>
</g>
<!-- [8] P&#45;&gt;[5] * -->
<g id="edge14" class="edge">
<title>[8] P&#45;&gt;[5] *</title>
<path fill="none" stroke="black" d="M199.52,-144.41C194.73,-136.04 188.83,-125.71 183.49,-116.37"/>
<polygon fill="black" stroke="black" points="186.41,-114.42 178.41,-107.47 180.33,-117.89 186.41,-114.42"/>
</g>
<!-- [7] P -->
<g id="node16" class="node">
<title>[7] P</title>
<ellipse fill="none" stroke="black" cx="250" cy="-90" rx="32.49" ry="18"/>
<text text-anchor="middle" x="250" y="-86.3" font-family="Times,serif" font-size="14.00">[7] P</text>
</g>
<!-- [8] P&#45;&gt;[7] P -->
<g id="edge15" class="edge">
<title>[8] P&#45;&gt;[7] P</title>
<path fill="none" stroke="black" d="M218.51,-144.76C223.45,-136.32 229.61,-125.8 235.17,-116.31"/>
<polygon fill="black" stroke="black" points="238.22,-118.03 240.25,-107.63 232.18,-114.49 238.22,-118.03"/>
</g>
<!-- [6] &amp; -->
<g id="node17" class="node">
<title>[6] &amp;</title>
<ellipse fill="none" stroke="black" cx="250" cy="-18" rx="34.39" ry="18"/>
<text text-anchor="middle" x="250" y="-14.3" font-family="Times,serif" font-size="14.00">[6] &amp;</text>
</g>
<!-- [7] P&#45;&gt;[6] &amp; -->
<g id="edge16" class="edge">
<title>[7] P&#45;&gt;[6] &amp;</title>
<path fill="none" stroke="black" d="M250,-71.7C250,-63.98 250,-54.71 250,-46.11"/>
<polygon fill="black" stroke="black" points="253.5,-46.1 250,-36.1 246.5,-46.1 253.5,-46.1"/>
</g>
<!-- [16] N -->
<g id="node22" class="node">
<title>[16] N</title>
<ellipse fill="none" stroke="black" cx="299" cy="-234" rx="40.09" ry="18"/>
<text text-anchor="middle" x="299" y="-230.3" font-family="Times,serif" font-size="14.00">[16] N</text>
</g>
<!-- [19] T&#45;&gt;[16] N -->
<g id="edge21" class="edge">
<title>[19] T&#45;&gt;[16] N</title>
<path fill="none" stroke="black" d="M373.06,-290.15C359.73,-280.22 341.98,-267.01 327.2,-256.01"/>
<polygon fill="black" stroke="black" points="329.01,-252.99 318.9,-249.82 324.83,-258.6 329.01,-252.99"/>
</g>
<!-- [18] P -->
<g id="node23" class="node">
<title>[18] P</title>
<ellipse fill="none" stroke="black" cx="396" cy="-234" rx="38.19" ry="18"/>
<text text-anchor="middle" x="396" y="-230.3" font-family="Times,serif" font-size="14.00">[18] P</text>
</g>
<!-- [19] T&#45;&gt;[18] P -->
<g id="edge22" class="edge">
<title>[19] T&#45;&gt;[18] P</title>
<path fill="none" stroke="black" d="M393.74,-287.7C394.07,-279.98 394.47,-270.71 394.83,-262.11"/>
<polygon fill="black" stroke="black" points="398.33,-262.25 395.26,-252.1 391.34,-261.95 398.33,-262.25"/>
</g>
<!-- [20] x -->
<g id="node26" class="node">
<title>[20] x</title>
<ellipse fill="none" stroke="black" cx="490" cy="-234" rx="37.89" ry="18"/>
<text text-anchor="middle" x="490" y="-230.3" font-family="Times,serif" font-size="14.00">[20] x</text>
</g>
<!-- [21] N&#45;&gt;[20] x -->
<g id="edge25" class="edge">
<title>[21] N&#45;&gt;[20] x</title>
<path fill="none" stroke="black" d="M490,-287.7C490,-279.98 490,-270.71 490,-262.11"/>
<polygon fill="black" stroke="black" points="493.5,-262.1 490,-252.1 486.5,-262.1 493.5,-262.1"/>
</g>
<!-- [22] , -->
<g id="node27" class="node">
<title>[22] ,</title>
<ellipse fill="none" stroke="black" cx="581" cy="-234" rx="35.19" ry="18"/>
<text text-anchor="middle" x="581" y="-230.3" font-family="Times,serif" font-size="14.00">[22] ,</text>
</g>
<!-- [43] B&#45;&gt;[22] , -->
<g id="edge26" class="edge">
<title>[43] B&#45;&gt;[22] ,</title>
<path fill="none" stroke="black" d="M652.7,-290.15C639.61,-280.09 622.15,-266.65 607.73,-255.56"/>
<polygon fill="black" stroke="black" points="609.71,-252.67 599.65,-249.35 605.44,-258.22 609.71,-252.67"/>
</g>
<!-- [29] T -->
<g id="node28" class="node">
<title>[29] T</title>
<ellipse fill="none" stroke="black" cx="672" cy="-234" rx="38.19" ry="18"/>
<text text-anchor="middle" x="672" y="-230.3" font-family="Times,serif" font-size="14.00">[29] T</text>
</g>
<!-- [43] B&#45;&gt;[29] T -->
<g id="edge27" class="edge">
<title>[43] B&#45;&gt;[29] T</title>
<path fill="none" stroke="black" d="M672,-287.7C672,-279.98 672,-270.71 672,-262.11"/>
<polygon fill="black" stroke="black" points="675.5,-262.1 672,-252.1 668.5,-262.1 675.5,-262.1"/>
</g>
<!-- [31] N -->
<g id="node29" class="node">
<title>[31] N</title>
<ellipse fill="none" stroke="black" cx="769" cy="-234" rx="40.09" ry="18"/>
<text text-anchor="middle" x="769" y="-230.3" font-family="Times,serif" font-size="14.00">[31] N</text>
</g>
<!-- [43] B&#45;&gt;[31] N -->
<g id="edge28" class="edge">
<title>[43] B&#45;&gt;[31] N</title>
<path fill="none" stroke="black" d="M692.1,-290.5C706.05,-280.43 724.84,-266.86 740.36,-255.67"/>
<polygon fill="black" stroke="black" points="742.53,-258.42 748.59,-249.73 738.43,-252.74 742.53,-258.42"/>
</g>
<!-- [42] B -->
<g id="node30" class="node">
<title>[42] B</title>
<ellipse fill="none" stroke="black" cx="951" cy="-234" rx="38.99" ry="18"/>
<text text-anchor="middle" x="951" y="-230.3" font-family="Times,serif" font-size="14.00">[42] B</text>
</g>
<!-- [43] B&#45;&gt;[42] B -->
<g id="edge29" class="edge">
<title>[43] B&#45;&gt;[42] B</title>
<path fill="none" stroke="black" d="M705.37,-296.63C755.89,-283.95 851.78,-259.89 907.64,-245.88"/>
<polygon fill="black" stroke="black" points="908.73,-249.21 917.58,-243.38 907.03,-242.42 908.73,-249.21"/>
</g>
<!-- [15] T -->
<g id="node24" class="node">
<title>[15] T</title>
<ellipse fill="none" stroke="black" cx="299" cy="-162" rx="38.19" ry="18"/>
<text text-anchor="middle" x="299" y="-158.3" font-family="Times,serif" font-size="14.00">[15] T</text>
</g>
<!-- [16] N&#45;&gt;[15] T -->
<g id="edge23" class="edge">
<title>[16] N&#45;&gt;[15] T</title>
<path fill="none" stroke="black" d="M299,-215.7C299,-207.98 299,-198.71 299,-190.11"/>
<polygon fill="black" stroke="black" points="302.5,-190.1 299,-180.1 295.5,-190.1 302.5,-190.1"/>
</g>
<!-- [17] &amp; -->
<g id="node25" class="node">
<title>[17] &amp;</title>
<ellipse fill="none" stroke="black" cx="396" cy="-162" rx="40.09" ry="18"/>
<text text-anchor="middle" x="396" y="-158.3" font-family="Times,serif" font-size="14.00">[17] &amp;</text>
</g>
<!-- [18] P&#45;&gt;[17] &amp; -->
<g id="edge24" class="edge">
<title>[18] P&#45;&gt;[17] &amp;</title>
<path fill="none" stroke="black" d="M396,-215.7C396,-207.98 396,-198.71 396,-190.11"/>
<polygon fill="black" stroke="black" points="399.5,-190.1 396,-180.1 392.5,-190.1 399.5,-190.1"/>
</g>
<!-- [24] N -->
<g id="node31" class="node">
<title>[24] N</title>
<ellipse fill="none" stroke="black" cx="575" cy="-162" rx="40.09" ry="18"/>
<text text-anchor="middle" x="575" y="-158.3" font-family="Times,serif" font-size="14.00">[24] N</text>
</g>
<!-- [29] T&#45;&gt;[24] N -->
<g id="edge30" class="edge">
<title>[29] T&#45;&gt;[24] N</title>
<path fill="none" stroke="black" d="M651.9,-218.5C637.95,-208.43 619.15,-194.86 603.63,-183.67"/>
<polygon fill="black" stroke="black" points="605.56,-180.74 595.4,-177.73 601.46,-186.42 605.56,-180.74"/>
</g>
<!-- [28] P -->
<g id="node32" class="node">
<title>[28] P</title>
<ellipse fill="none" stroke="black" cx="672" cy="-162" rx="38.19" ry="18"/>
<text text-anchor="middle" x="672" y="-158.3" font-family="Times,serif" font-size="14.00">[28] P</text>
</g>
<!-- [29] T&#45;&gt;[28] P -->
<g id="edge31" class="edge">
<title>[29] T&#45;&gt;[28] P</title>
<path fill="none" stroke="black" d="M672,-215.7C672,-207.98 672,-198.71 672,-190.11"/>
<polygon fill="black" stroke="black" points="675.5,-190.1 672,-180.1 668.5,-190.1 675.5,-190.1"/>
</g>
<!-- [30] y -->
<g id="node37" class="node">
<title>[30] y</title>
<ellipse fill="none" stroke="black" cx="769" cy="-162" rx="37.89" ry="18"/>
<text text-anchor="middle" x="769" y="-158.3" font-family="Times,serif" font-size="14.00">[30] y</text>
</g>
<!-- [31] N&#45;&gt;[30] y -->
<g id="edge36" class="edge">
<title>[31] N&#45;&gt;[30] y</title>
<path fill="none" stroke="black" d="M769,-215.7C769,-207.98 769,-198.71 769,-190.11"/>
<polygon fill="black" stroke="black" points="772.5,-190.1 769,-180.1 765.5,-190.1 772.5,-190.1"/>
</g>
<!-- [32] , -->
<g id="node38" class="node">
<title>[32] ,</title>
<ellipse fill="none" stroke="black" cx="860" cy="-162" rx="35.19" ry="18"/>
<text text-anchor="middle" x="860" y="-158.3" font-family="Times,serif" font-size="14.00">[32] ,</text>
</g>
<!-- [42] B&#45;&gt;[32] , -->
<g id="edge37" class="edge">
<title>[42] B&#45;&gt;[32] ,</title>
<path fill="none" stroke="black" d="M931.7,-218.15C918.61,-208.09 901.15,-194.65 886.73,-183.56"/>
<polygon fill="black" stroke="black" points="888.71,-180.67 878.65,-177.35 884.44,-186.22 888.71,-180.67"/>
</g>
<!-- [37] T -->
<g id="node39" class="node">
<title>[37] T</title>
<ellipse fill="none" stroke="black" cx="951" cy="-162" rx="38.19" ry="18"/>
<text text-anchor="middle" x="951" y="-158.3" font-family="Times,serif" font-size="14.00">[37] T</text>
</g>
<!-- [42] B&#45;&gt;[37] T -->
<g id="edge38" class="edge">
<title>[42] B&#45;&gt;[37] T</title>
<path fill="none" stroke="black" d="M951,-215.7C951,-207.98 951,-198.71 951,-190.11"/>
<polygon fill="black" stroke="black" points="954.5,-190.1 951,-180.1 947.5,-190.1 954.5,-190.1"/>
</g>
<!-- [39] N -->
<g id="node40" class="node">
<title>[39] N</title>
<ellipse fill="none" stroke="black" cx="1048" cy="-162" rx="40.09" ry="18"/>
<text text-anchor="middle" x="1048" y="-158.3" font-family="Times,serif" font-size="14.00">[39] N</text>
</g>
<!-- [42] B&#45;&gt;[39] N -->
<g id="edge39" class="edge">
<title>[42] B&#45;&gt;[39] N</title>
<path fill="none" stroke="black" d="M971.1,-218.5C985.05,-208.43 1003.84,-194.86 1019.36,-183.67"/>
<polygon fill="black" stroke="black" points="1021.53,-186.42 1027.59,-177.73 1017.43,-180.74 1021.53,-186.42"/>
</g>
<!-- [41] B -->
<g id="node41" class="node">
<title>[41] B</title>
<ellipse fill="none" stroke="black" cx="1145" cy="-162" rx="38.99" ry="18"/>
<text text-anchor="middle" x="1145" y="-158.3" font-family="Times,serif" font-size="14.00">[41] B</text>
</g>
<!-- [42] B&#45;&gt;[41] B -->
<g id="edge40" class="edge">
<title>[42] B&#45;&gt;[41] B</title>
<path fill="none" stroke="black" d="M980.88,-222.22C1014.35,-210.14 1068.72,-190.52 1105.63,-177.21"/>
<polygon fill="black" stroke="black" points="1106.86,-180.48 1115.08,-173.8 1104.48,-173.9 1106.86,-180.48"/>
</g>
<!-- [23] T -->
<g id="node33" class="node">
<title>[23] T</title>
<ellipse fill="none" stroke="black" cx="575" cy="-90" rx="38.19" ry="18"/>
<text text-anchor="middle" x="575" y="-86.3" font-family="Times,serif" font-size="14.00">[23] T</text>
</g>
<!-- [24] N&#45;&gt;[23] T -->
<g id="edge32" class="edge">
<title>[24] N&#45;&gt;[23] T</title>
<path fill="none" stroke="black" d="M575,-143.7C575,-135.98 575,-126.71 575,-118.11"/>
<polygon fill="black" stroke="black" points="578.5,-118.1 575,-108.1 571.5,-118.1 578.5,-118.1"/>
</g>
<!-- [25] * -->
<g id="node34" class="node">
<title>[25] *</title>
<ellipse fill="none" stroke="black" cx="668" cy="-90" rx="36.29" ry="18"/>
<text text-anchor="middle" x="668" y="-86.3" font-family="Times,serif" font-size="14.00">[25] *</text>
</g>
<!-- [28] P&#45;&gt;[25] * -->
<g id="edge33" class="edge">
<title>[28] P&#45;&gt;[25] *</title>
<path fill="none" stroke="black" d="M671.01,-143.7C670.57,-135.98 670.04,-126.71 669.55,-118.11"/>
<polygon fill="black" stroke="black" points="673.04,-117.89 668.97,-108.1 666.05,-118.29 673.04,-117.89"/>
</g>
<!-- [27] P -->
<g id="node35" class="node">
<title>[27] P</title>
<ellipse fill="none" stroke="black" cx="761" cy="-90" rx="38.19" ry="18"/>
<text text-anchor="middle" x="761" y="-86.3" font-family="Times,serif" font-size="14.00">[27] P</text>
</g>
<!-- [28] P&#45;&gt;[27] P -->
<g id="edge34" class="edge">
<title>[28] P&#45;&gt;[27] P</title>
<path fill="none" stroke="black" d="M690.87,-146.15C703.5,-136.22 720.3,-123.01 734.29,-112.01"/>
<polygon fill="black" stroke="black" points="736.45,-114.76 742.15,-105.82 732.13,-109.25 736.45,-114.76"/>
</g>
<!-- [26] ε -->
<g id="node36" class="node">
<title>[26] ε</title>
<ellipse fill="none" stroke="black" cx="761" cy="-18" rx="37.09" ry="18"/>
<text text-anchor="middle" x="761" y="-14.3" font-family="Times,serif" font-size="14.00">[26] ε</text>
</g>
<!-- [27] P&#45;&gt;[26] ε -->
<g id="edge35" class="edge">
<title>[27] P&#45;&gt;[26] ε</title>
<path fill="none" stroke="black" d="M761,-71.7C761,-63.98 761,-54.71 761,-46.11"/>
<polygon fill="black" stroke="black" points="764.5,-46.1 761,-36.1 757.5,-46.1 764.5,-46.1"/>
</g>
<!-- [34] N -->
<g id="node42" class="node">
<title>[34] N</title>
<ellipse fill="none" stroke="black" cx="858" cy="-90" rx="40.09" ry="18"/>
<text text-anchor="middle" x="858" y="-86.3" font-family="Times,serif" font-size="14.00">[34] N</text>
</g>
<!-- [37] T&#45;&gt;[34] N -->
<g id="edge41" class="edge">
<title>[37] T&#45;&gt;[34] N</title>
<path fill="none" stroke="black" d="M931.27,-146.15C918.08,-136.22 900.52,-123.01 885.9,-112.01"/>
<polygon fill="black" stroke="black" points="887.79,-109.04 877.69,-105.82 883.58,-114.63 887.79,-109.04"/>
</g>
<!-- [36] P -->
<g id="node43" class="node">
<title>[36] P</title>
<ellipse fill="none" stroke="black" cx="955" cy="-90" rx="38.19" ry="18"/>
<text text-anchor="middle" x="955" y="-86.3" font-family="Times,serif" font-size="14.00">[36] P</text>
</g>
<!-- [37] T&#45;&gt;[36] P -->
<g id="edge42" class="edge">
<title>[37] T&#45;&gt;[36] P</title>
<path fill="none" stroke="black" d="M951.99,-143.7C952.43,-135.98 952.96,-126.71 953.45,-118.11"/>
<polygon fill="black" stroke="black" points="956.94,-118.29 954.02,-108.1 949.95,-117.89 956.94,-118.29"/>
</g>
<!-- [38] z -->
<g id="node46" class="node">
<title>[38] z</title>
<ellipse fill="none" stroke="black" cx="1048" cy="-90" rx="37.09" ry="18"/>
<text text-anchor="middle" x="1048" y="-86.3" font-family="Times,serif" font-size="14.00">[38] z</text>
</g>
<!-- [39] N&#45;&gt;[38] z -->
<g id="edge45" class="edge">
<title>[39] N&#45;&gt;[38] z</title>
<path fill="none" stroke="black" d="M1048,-143.7C1048,-135.98 1048,-126.71 1048,-118.11"/>
<polygon fill="black" stroke="black" points="1051.5,-118.1 1048,-108.1 1044.5,-118.1 1051.5,-118.1"/>
</g>
<!-- [40] ε -->
<g id="node47" class="node">
<title>[40] ε</title>
<ellipse fill="none" stroke="black" cx="1145" cy="-90" rx="37.09" ry="18"/>
<text text-anchor="middle" x="1145" y="-86.3" font-family="Times,serif" font-size="14.00">[40] ε</text>
</g>
<!-- [41] B&#45;&gt;[40] ε -->
<g id="edge46" class="edge">
<title>[41] B&#45;&gt;[40] ε</title>
<path fill="none" stroke="black" d="M1145,-143.7C1145,-135.98 1145,-126.71 1145,-118.11"/>
<polygon fill="black" stroke="black" points="1148.5,-118.1 1145,-108.1 1141.5,-118.1 1148.5,-118.1"/>
</g>
<!-- [33] T -->
<g id="node44" class="node">
<title>[33] T</title>
<ellipse fill="none" stroke="black" cx="858" cy="-18" rx="38.19" ry="18"/>
<text text-anchor="middle" x="858" y="-14.3" font-family="Times,serif" font-size="14.00">[33] T</text>
</g>
<!-- [34] N&#45;&gt;[33] T -->
<g id="edge43" class="edge">
<title>[34] N&#45;&gt;[33] T</title>
<path fill="none" stroke="black" d="M858,-71.7C858,-63.98 858,-54.71 858,-46.11"/>
<polygon fill="black" stroke="black" points="861.5,-46.1 858,-36.1 854.5,-46.1 861.5,-46.1"/>
</g>
<!-- [35] ε -->
<g id="node45" class="node">
<title>[35] ε</title>
<ellipse fill="none" stroke="black" cx="955" cy="-18" rx="37.09" ry="18"/>
<text text-anchor="middle" x="955" y="-14.3" font-family="Times,serif" font-size="14.00">[35] ε</text>
</g>
<!-- [36] P&#45;&gt;[35] ε -->
<g id="edge44" class="edge">
<title>[36] P&#45;&gt;[35] ε</title>
<path fill="none" stroke="black" d="M955,-71.7C955,-63.98 955,-54.71 955,-46.11"/>
<polygon fill="black" stroke="black" points="958.5,-46.1 955,-36.1 951.5,-46.1 958.5,-46.1"/>
</g>
</g>
</svg>
